HIERARCHY
ROOT Hips
{
	OFFSET -14.64140 90.27770 -84.91600
	CHANNELS 6 Xposition Yposition Zposition Zrotation Xrotation Yrotation
	JOINT Spine
	{
		OFFSET 0.00000 13.20850 -1.60436
		CHANNELS 3 Zrotation Xrotation Yrotation
		JOINT Spine1
		{
			OFFSET 0.00000 8.61716 0.00000
			CHANNELS 3 Zrotation Xrotation Yrotation
			JOINT Spine2
			{
				OFFSET 0.00000 8.61717 0.00000
				CHANNELS 3 Zrotation Xrotation Yrotation
				JOINT Spine3
				{
					OFFSET 0.00000 8.61717 0.00000
					CHANNELS 3 Zrotation Xrotation Yrotation
					JOINT Neck
					{
						OFFSET 0.00000 11.07920 1.10792
						CHANNELS 3 Zrotation Xrotation Yrotation
						JOINT Neck1
						{
							OFFSET 0.00000 7.08032 0.00000
							CHANNELS 3 Zrotation Xrotation Yrotation
							JOINT Head
							{
								OFFSET 0.00000 7.08031 0.00000
								CHANNELS 3 Zrotation Xrotation Yrotation
								End site
								{
									OFFSET 0.00000 0.00000 0.00000
								}
							}
						}
					}
					JOINT RightShoulder
					{
						OFFSET -0.01000 7.91373 5.19711
						CHANNELS 3 Zrotation Xrotation Yrotation
						JOINT RightArm
						{
							OFFSET -18.41580 0.00000 0.00000
							CHANNELS 3 Zrotation Xrotation Yrotation
							JOINT RightForeArm
							{
								OFFSET -29.11090 0.00000 0.00000
								CHANNELS 3 Zrotation Xrotation Yrotation
								JOINT RightHand
								{
									OFFSET -24.65040 0.00000 0.00000
									CHANNELS 3 Zrotation Xrotation Yrotation
									JOINT RightHandThumb1
									{
										OFFSET -5.35114 -0.85590 3.97906
										CHANNELS 3 Zrotation Xrotation Yrotation
										JOINT RightHandThumb2
										{
											OFFSET -4.52789 0.00000 0.00000
											CHANNELS 3 Zrotation Xrotation Yrotation
											JOINT RightHandThumb3
											{
												OFFSET -2.46976 0.00000 0.00000
												CHANNELS 3 Zrotation Xrotation Yrotation
												End site
												{
													OFFSET 0.00000 0.00000 0.00000
												}
											}
										}
									}
									JOINT RightHandIndex1
									{
										OFFSET -14.26970 0.00000 2.88139
										CHANNELS 3 Zrotation Xrotation Yrotation
										JOINT RightHandIndex2
										{
											OFFSET -5.48836 0.00000 0.00000
											CHANNELS 3 Zrotation Xrotation Yrotation
											JOINT RightHandIndex3
											{
												OFFSET -3.01859 0.00000 0.00000
												CHANNELS 3 Zrotation Xrotation Yrotation
												End site
												{
													OFFSET 0.00000 0.00000 0.00000
												}
											}
										}
									}
									JOINT RightHandMiddle1
									{
										OFFSET -14.26970 0.00000 -0.09147
										CHANNELS 3 Zrotation Xrotation Yrotation
										JOINT RightHandMiddle2
										{
											OFFSET -6.17441 0.00000 0.00000
											CHANNELS 3 Zrotation Xrotation Yrotation
											JOINT RightHandMiddle3
											{
												OFFSET -3.56743 0.00000 0.00000
												CHANNELS 3 Zrotation Xrotation Yrotation
												End site
												{
													OFFSET 0.00000 0.00000 0.00000
												}
											}
										}
									}
									JOINT RightHandRing1
									{
										OFFSET -12.69180 0.00000 -3.06433
										CHANNELS 3 Zrotation Xrotation Yrotation
										JOINT RightHandRing2
										{
											OFFSET -5.62556 0.00000 0.00000
											CHANNELS 3 Zrotation Xrotation Yrotation
											JOINT RightHandRing3
											{
												OFFSET -3.56744 0.00000 0.00000
												CHANNELS 3 Zrotation Xrotation Yrotation
												End site
												{
													OFFSET 0.00000 0.00000 0.00000
												}
											}
										}
									}
									JOINT RightHandPinky1
									{
										OFFSET -11.11390 0.00000 -6.03719
										CHANNELS 3 Zrotation Xrotation Yrotation
										JOINT RightHandPinky2
										{
											OFFSET -4.52789 0.00000 0.00000
											CHANNELS 3 Zrotation Xrotation Yrotation
											JOINT RightHandPinky3
											{
												OFFSET -2.46976 0.00000 0.00000
												CHANNELS 3 Zrotation Xrotation Yrotation
												End site
												{
													OFFSET 0.00000 0.00000 0.00000
												}
											}
										}
									}
								}
							}
						}
					}
					JOINT LeftShoulder
					{
						OFFSET 0.01000 7.91373 5.19711
						CHANNELS 3 Zrotation Xrotation Yrotation
						JOINT LeftArm
						{
							OFFSET 18.41580 0.00000 0.00000
							CHANNELS 3 Zrotation Xrotation Yrotation
							JOINT LeftForeArm
							{
								OFFSET 29.11090 0.00000 0.00000
								CHANNELS 3 Zrotation Xrotation Yrotation
								JOINT LeftHand
								{
									OFFSET 24.65040 0.00000 0.00000
									CHANNELS 3 Zrotation Xrotation Yrotation
									JOINT LeftHandThumb1
									{
										OFFSET 5.35114 -0.85590 3.97906
										CHANNELS 3 Zrotation Xrotation Yrotation
										JOINT LeftHandThumb2
										{
											OFFSET 4.52789 0.00000 0.00000
											CHANNELS 3 Zrotation Xrotation Yrotation
											JOINT LeftHandThumb3
											{
												OFFSET 2.46977 0.00000 0.00000
												CHANNELS 3 Zrotation Xrotation Yrotation
												End site
												{
													OFFSET 0.00000 0.00000 0.00000
												}
											}
										}
									}
									JOINT LeftHandIndex1
									{
										OFFSET 14.26970 0.00000 2.88139
										CHANNELS 3 Zrotation Xrotation Yrotation
										JOINT LeftHandIndex2
										{
											OFFSET 5.48836 0.00000 0.00000
											CHANNELS 3 Zrotation Xrotation Yrotation
											JOINT LeftHandIndex3
											{
												OFFSET 3.01859 0.00000 0.00000
												CHANNELS 3 Zrotation Xrotation Yrotation
												End site
												{
													OFFSET 0.00000 0.00000 0.00000
												}
											}
										}
									}
									JOINT LeftHandMiddle1
									{
										OFFSET 14.26970 0.00000 -0.09147
										CHANNELS 3 Zrotation Xrotation Yrotation
										JOINT LeftHandMiddle2
										{
											OFFSET 6.17440 0.00000 0.00000
											CHANNELS 3 Zrotation Xrotation Yrotation
											JOINT LeftHandMiddle3
											{
												OFFSET 3.56744 0.00000 0.00000
												CHANNELS 3 Zrotation Xrotation Yrotation
												End site
												{
													OFFSET 0.00000 0.00000 0.00000
												}
											}
										}
									}
									JOINT LeftHandRing1
									{
										OFFSET 12.69180 0.00000 -3.06433
										CHANNELS 3 Zrotation Xrotation Yrotation
										JOINT LeftHandRing2
										{
											OFFSET 5.62556 0.00000 0.00000
											CHANNELS 3 Zrotation Xrotation Yrotation
											JOINT LeftHandRing3
											{
												OFFSET 3.56744 0.00000 0.00000
												CHANNELS 3 Zrotation Xrotation Yrotation
												End site
												{
													OFFSET 0.00000 0.00000 0.00000
												}
											}
										}
									}
									JOINT LeftHandPinky1
									{
										OFFSET 11.11390 0.00000 -6.03719
										CHANNELS 3 Zrotation Xrotation Yrotation
										JOINT LeftHandPinky2
										{
											OFFSET 4.52789 0.00000 0.00000
											CHANNELS 3 Zrotation Xrotation Yrotation
											JOINT LeftHandPinky3
											{
												OFFSET 2.46976 0.00000 0.00000
												CHANNELS 3 Zrotation Xrotation Yrotation
												End site
												{
													OFFSET 0.00000 0.00000 0.00000
												}
											}
										}
									}
								}
							}
						}
					}
					JOINT pCube4
					{
						OFFSET 0.00000 10.91090 1.10792
						CHANNELS 3 Zrotation Xrotation Yrotation
						End site
						{
							OFFSET 0.00000 0.00000 0.00000
						}
					}
				}
			}
		}
	}
	JOINT RightUpLeg
	{
		OFFSET -9.98441 0.00000 0.00000
		CHANNELS 3 Zrotation Xrotation Yrotation
		JOINT RightLeg
		{
			OFFSET 0.00000 -42.11790 0.00000
			CHANNELS 3 Zrotation Xrotation Yrotation
			JOINT RightFoot
			{
				OFFSET 0.00000 -45.00020 -0.00001
				CHANNELS 3 Zrotation Xrotation Yrotation
				JOINT RightForeFoot
				{
					OFFSET 0.00000 -3.74820 0.00000
					CHANNELS 3 Zrotation Xrotation Yrotation
					JOINT RightToeBase
					{
						OFFSET 0.00000 0.06325 14.43120
						CHANNELS 3 Zrotation Xrotation Yrotation
						End site
						{
							OFFSET 0.00000 0.00000 0.00000
						}
					}
				}
			}
		}
	}
	JOINT LeftUpLeg
	{
		OFFSET 9.98441 0.00000 0.00000
		CHANNELS 3 Zrotation Xrotation Yrotation
		JOINT LeftLeg
		{
			OFFSET 0.00000 -42.11800 0.00000
			CHANNELS 3 Zrotation Xrotation Yrotation
			JOINT LeftFoot
			{
				OFFSET 0.00000 -45.00070 0.00000
				CHANNELS 3 Zrotation Xrotation Yrotation
				JOINT LeftForeFoot
				{
					OFFSET 0.00000 -3.74824 0.00000
					CHANNELS 3 Zrotation Xrotation Yrotation
					JOINT LeftToeBase
					{
						OFFSET 0.00000 0.06325 14.43110
						CHANNELS 3 Zrotation Xrotation Yrotation
						End site
						{
							OFFSET 0.00000 0.00000 0.00000
						}
					}
				}
			}
		}
	}
}
MOTION
Frames: 4
Frame Time: 0.050000
0.006534338880487191 -0.025574998143902756 -0.030223495010547354 -0.01585060752179931 -0.03809219241320235 0.005983280243614404 -3.7592676773242233 4.186777578992914 -0.5685210046911231 -1.0093687959466366 3.8514323095235 0.44834401529195345 -1.397382661893258 -1.0555457129283343 -0.1329972074096182 0.42987671437672337 0.8008716471329824 -0.8118433190872618 0.7264381667731862 12.107627317100368 -2.2721802703344802 -0.3295416925692938 -1.7965537805228882 -8.970296411976358 0.5568341259485536 -17.967702227927667 -0.7591923189837814 -3.6804523568957115 1.541236468117034 -13.141503828671611 69.81497471278945 15.027082898705194 22.665559571746087 6.792759553064926 5.049404267804453 84.69670963728299 13.481231515152592 -0.507862363051094 -4.447479916774381 4.496894515095092 -0.16765323930627746 -1.5809030006895697 0.03576095630886015 -0.0009475195918023461 -56.22301972974192 0.009200111785465625 0.010516184727775612 -56.25678723019847 -38.79841578241951 -0.029354359918327334 -0.020367134697716862 -0.027830415995401245 0.014792286735446695 -0.0472458788027914 -0.027268492656921498 -0.023662532489200975 0.023230167100332506 -36.712299962023735 0.021376287594941985 0.044516573505123204 -0.046175329557509366 -0.0062932438526674996 0.04688541939968809 0.018489506936887255 -0.0034589308754247134 0.038567664859964226 -19.80353365283957 -0.04882892897984124 0.0036977406572513407 -0.03101794513851337 -0.008903088912901277 0.019678434069022564 0.009155950820013687 -0.024085427559898096 0.02880732221011659 24.045260333892386 0.005931831967062089 0.025402649780512036 28.909809101802196 -0.02540147819902185 0.034281831916349315 28.86067119786259 0.014520823101824969 0.020027381072763587 1.3892193366997163 0.5709447781035567 11.642123141700512 -66.03866628207132 25.98186435239745 -7.396850056002981 6.814621988890953 -13.428851175727406 -52.86270065819597 -8.897398521207343 2.5796174587147997 0.6205513646622357 -0.4679461407280193 0.034162462665772324 -8.11159125402216 0.031073546250099237 0.047868259145261015 44.58896087785072 -0.021784053092584754 0.045791437349528126 44.54427591704245 12.411549401134032 -0.012010109245754868 0.008392323560242176 0.035596658301138145 0.01948753895153623 0.005346918260958336 -0.009046019666641703 -0.035709177778645636 -0.013730719464623274 11.059990395641893 -0.0013331136157032212 -0.04194512179218866 -0.034351802679099326 -0.013974976307418834 0.028218508613140878 -0.039969962238064934 0.043921021845564547 0.04055920132464771 4.753548440537566 -0.031216603361894295 0.038458294570733416 0.005288021635162456 -0.012282813739640002 -0.046285751891941576 0.009061260491535722 0.018503239029536135 -0.04934255687323359 -5.615796788853242 0.006138566445389163 0.019197607731610125 -6.73976023566412 -0.04738971800837935 -0.048925619926951776 -6.675318600691423 0.03508881156105417 -0.010880987894299544 -0.044704685275065256 -0.013980725607411376 0.031899411229981134 8.072544079698394 3.4823591192499226 -19.26519175493238 -0.029800785418995716 10.44282091501582 0.020645744630615973 -5.6596095664869415 -15.672025507283298 3.2354868814172253 0.001063355053928382 0.042591214272245714 0.024504036166949385 0.01926203095451583 4.744930285264644 0.0037079429940307437 12.499853002689706 -8.210976495091948 6.877893482490473 -0.030590637135032486 46.414892541577984 0.01558450046142795 -4.356401161655593 -14.753394484937786 -3.8649631472970207 -0.011065099358413578 -0.013249946607118753 -0.048341966418947065 -0.04122086086119327 -10.721426795280152 0.009206682189523818 
0.02481720894290997 -0.0376517019955909 -0.020280761530144516 -0.006918239317641817 0.03603461665779248 -0.025699419753256347 -3.553070270743796 3.9753314460384663 -0.6632267608340087 -1.0075296090329595 3.8994669704423144 0.36900817253563134 -1.3350020549653951 -1.149440540849183 -0.0911224059300903 0.30966561710530155 0.7788466616589488 -0.7223300821745109 0.6519732292108725 12.441844173136923 -2.090995189315638 -0.3871393327754215 -1.72386387437979 -8.332497694951334 0.4706654823203973 -18.004668812945333 -0.7172485318071609 -4.14911068956524 1.697507048148469 -13.336554233329244 70.46239545354774 14.545193578984888 21.987072857940618 4.413675581288422 5.041170229595263 82.61426674736728 13.315165592844215 -0.4187765210303419 -4.07678871539291 4.546758753390629 -0.09018489662312078 -1.5616957443495967 0.0010572050042090303 -0.017102166962179678 -56.25426925195039 0.03881358520810696 0.027198736629652984 -56.276183654504976 -38.803006608442374 0.03750100748352596 0.014174604756439252 -0.015054461606797607 0.01814934138805292 0.008671828495430155 0.04028736307894901 -0.008525332770713353 -0.027482657621558094 -36.67670765770787 -0.015608716447287006 0.049837843966591015 -0.010175101103782383 0.03976174557050706 0.04048395144524951 0.0046419235809414755 0.033905332969949416 -0.009684365724726827 -19.71651412881 0.02297046781764788 0.047878606937800924 -0.024973019757396547 0.019439666345557407 -0.007612818831442591 0.02189613131404302 -0.03762834102901896 0.020249132741652378 24.086452469005707 0.028852874262841898 0.04916417013141367 28.830070203706104 0.0006693293895191622 0.03534122451300382 28.88433876073002 0.0017392747197428197 0.03677941312433197 2.047882203452316 0.6955576315444865 11.841192176598677 -66.3872237648479 26.13107371593121 -7.613535595347439 6.494654345208763 -13.557431876216144 -52.83779474516939 -9.090936046520996 1.9425081772755743 0.9195654519765747 -0.4472569618498947 0.047403613020998395 -8.093273412024136 0.026363160661545617 -0.03477366725077543 44.55136633942354 -0.03592473566819729 0.0014840387634904105 44.56863758276494 12.490182644248534 -0.011982423649101749 0.039530820344507556 0.016660885138557853 -0.04814663166060264 0.02322043263675777 -0.04227722854352411 -0.002296394471581602 0.024381182234194228 11.141079727970842 -0.036036995475160205 -0.03314725873980009 -0.023954529429039282 -0.01299370323937721 0.008217898963082452 0.009412942369665554 0.01858220015268434 -0.046384797991966126 4.8084229178637266 0.017173358358750692 -0.044980275835456614 -0.024924750605570506 0.002753139298608856 0.007862115356537604 -0.007958177111205186 0.045244179511577616 0.0007584793482783771 -5.591161261519278 0.03592126576796327 0.009712497763558947 -6.698150042788386 -0.02711676597667549 0.04774889177724084 -6.768890553707997 0.03432740240638005 0.04607147793032272 -0.01952028729981434 0.037949194847292624 0.00040222355004799793 8.037404297348136 3.485992554295498 -19.254696377377037 -0.0022572473208057817 10.401641415732321 -0.009222060096827588 -5.615087470148299 -15.692692079176824 3.234409840458863 0.014573013858690021 0.026834307635627788 0.026357435928665136 0.02499490767446804 4.713123549788984 -0.02893938013186022 12.50214800638692 -8.258335824862572 6.895461757751672 0.014903633993814355 46.358725726694594 0.025287128934098707 -4.336329272516668 -14.772228235930992 -3.8826808159871335 0.003907332692243014 -0.01627340892348564 -0.020558438361171417 0.023537099767488363 -10.79212447020722 -0.006309867612842938 
0.0458144400203425 0.03316714052188432 0.008814943288056045 -0.02209672536777849 -0.0040170168492508216 0.036872566356753456 -3.2443888429806504 3.7182011975472324 -0.6905468216401816 -1.0363024684295548 3.901124243335618 0.42289483135348366 -1.2942735925159947 -1.164002583311535 -0.1005218529578544 0.2893139562629708 0.7589079896470232 -0.7828297064716858 0.5459504026922165 12.737550132498425 -2.007836040623396 -0.3005831944364047 -1.5882457694993968 -7.94670121266538 0.44718775744128036 -17.83173939321286 -0.6708109625714586 -4.644787386110322 1.750991726989328 -13.571583200191608 71.01618659605214 14.805706122889315 21.123681384032544 1.6067523193790119 4.781235670096238 79.19359809987782 13.331079946115961 -0.47330159393812904 -3.7628546892319026 4.516881070213916 -0.08088079161823152 -1.6221464914052404 -0.018461882080663187 0.01123484161530507 -56.23094988955472 0.004120964448093525 0.04176424808889288 -56.19712181195327 -38.81220580600096 -0.037165963616486525 0.007018440785455833 -0.026027948750321616 0.042719847125552476 0.0025708751363183488 -0.022346332421331678 -0.03732313684248822 -0.03006228988693165 -36.68733157964527 -0.0020978028247422183 -0.0396186104136952 -0.03126242946119203 -0.013976350778316667 0.038398185133876835 0.031980986037885226 0.024848335816066824 0.0065139616079593335 -19.718628454621555 -0.007593175256248444 0.019988874673327817 0.015502844701810846 0.013600156591813947 -0.016981613207805252 -0.0020807398205292833 0.027448870314866983 -0.0004261942065223576 24.060007956649073 -0.0296158585405905 -0.018139366571530244 28.825585466875324 0.014255724776640786 -0.009324058551310792 28.90672662880415 -0.0019588813385541634 0.023744226386872624 2.6720368707394937 0.7797281060559085 12.062924838306087 -66.39128790508323 26.398743319826906 -8.146827168377124 6.0681648552032685 -13.574710541351998 -53.03972919700065 -9.24007254777735 1.307361010339762 1.348931199845878 -0.46059717593658195 0.10004637882127157 -8.141046005201849 -0.02574524818391947 0.017441671086744236 44.58628588837056 -0.021604787665601394 0.019627736460037532 44.58774968080669 12.449365663027816 -0.021048897033326353 -0.03753563021122953 -0.014949541802793478 0.030500668770970307 -0.03657923226798659 -0.015855749472291056 0.036549690846918614 0.00938404078787606 11.107913590750968 -0.040129285457363724 -0.02818704119919895 0.03438692928125004 0.04940684534754054 0.04383046546120643 -0.003383695562142587 0.007216667398921213 0.013017004411260627 4.776353465903898 -0.003293793882106994 0.01607106850412186 -0.025452937672471487 -0.035941313969999514 0.018857934656112272 -0.04597319887014265 0.0217224156775668 0.01859339935281691 -5.618292095213706 0.04914792388626087 0.0023448797635441474 -6.7454505663892315 0.021330069662840602 -0.035716163739917026 -6.7145905313414405 -0.014183967187301812 0.03789646663496239 0.03115970473930245 0.040917550872064785 -0.009401055499751959 8.031849047786022 3.500241000523809 -19.172589518864417 0.006280673966352154 10.423317903045938 -0.004510826778174375 -5.653029801180498 -15.683700721536974 3.1735950916096254 0.04118814031770943 0.01250735417945843 -0.01093202187365904 0.04436214602226619 4.70530742972893 0.03344636350535251 12.485892717397798 -8.252790857582571 6.871970350682412 -0.021756559331716975 46.373176158071914 0.018533271162536127 -4.371863004820445 -14.700917128997736 -3.8328448266883965 0.03841017674442872 0.034336627478936475 0.007072278084276144 0.008645933201353697 -10.701680375091618 0.008919201686233811 
-0.017350067203997212 -0.004697628233268751 -0.0024598487672070498 0.027383115900540406 -0.03723597113012749 -0.013965412782244724 -2.9273151867780443 3.45090431906626 -0.7362742071793593 -1.0182397617099408 3.9070252548731736 0.38552642296698164 -1.3096828484205492 -1.3090914139587038 -0.033821175223878584 0.23450645365151696 0.6945828562598282 -0.7468404214862197 0.5017440534686568 13.01814023371893 -1.822071092723952 -0.3187639410790059 -1.3894398685979372 -7.460475398515269 0.5304498731921513 -17.535883994505166 -0.5798693080960062 -5.303801067477175 1.919828887236115 -13.710453860796669 71.28554866382534 14.00152032250328 21.376413207411705 0.15103462173847912 4.102781319909392 78.08403180865204 13.15762810321459 -0.4102597678405863 -3.3173552643811126 4.53653542286537 -0.1449408912631302 -1.575960083301223 -0.018196233159267387 -0.006161814479442557 -56.23894495988135 0.03506754769832179 0.02007208596366211 -56.235070073782005 -38.73043381767631 0.029802969084165628 -0.005720259062271513 0.023829098324050575 0.016844162730694924 -0.044738319257251725 -0.008679453658011607 0.0009201463140592017 -0.01670946303942946 -36.655731485663246 -0.04676188626884867 0.005665803266391107 -0.016842784623001816 0.00025481191631216414 -0.02449290895849609 -0.03557125047904276 -0.009768205646191743 -0.04311801920776297 -19.718638257435444 0.02140561912197539 -0.046332098661171876 0.034652075311197385 0.005181074393321137 -0.028371584451837985 -0.01033247545182122 0.04897977540496076 -0.015944234546649682 24.08742198861728 0.018546620973673926 0.026058291609841515 28.87807218606042 0.045407485147018325 -0.005227226593536539 28.825581961112437 0.0254651037806024 -0.04380101606845313 3.5918810418908858 0.9473707581053257 12.251007616478404 -66.40446308154549 25.79818225057552 -9.387710962682107 5.697062429413159 -13.446612022062762 -53.874818669201375 -9.058231911611633 0.8828694841455315 1.5322705513301984 -0.47034151499435 0.042808917989488646 -8.150464846229006 -0.032730832171020366 0.03916331330489033 44.602662389493155 -0.031774674531915376 -0.02016148278098642 44.5450985959225 12.504963987712626 -0.035271219310827676 -0.011327149356703422 -0.04154629795425192 -0.04560702099224032 0.005269678019185995 0.003746790828796356 -0.004721024792338101 -0.0018073048956006945 11.084616400821211 -0.015754748668251547 -0.031173662281161744 -0.04541290325461727 0.04435873481267886 -0.02460358767497358 0.043018300780462565 0.04734537021907848 -0.048052390563332326 4.755378296192413 0.018291645517975994 -0.009527729750812584 -0.025311536376015114 -0.03236654012891337 0.006935380044560955 -0.00244454105313362 -0.005765163917857549 -0.027067552415924262 -5.646055233529179 0.0441982324248958 -0.024768134325990836 -6.747523019520133 0.03282724681050599 0.011646880774884847 -6.746879468435084 0.025413200806972028 -0.01939564855971029 0.009938960508668791 -0.004456456062143684 0.047147255047320036 8.009128576571921 3.4838920401083167 -19.177669541999588 0.016225175501623123 10.427752178591186 0.033527613064014986 -5.614407457232018 -15.634658955384026 3.197842235705878 -0.04713443074941411 -0.014032959554178692 -0.015270028237554637 -0.02564661407852837 4.7247349656549495 -0.0023563097710900343 12.445187078744352 -8.212648652524246 6.914663103655523 0.013650315405736926 46.40203925780929 -0.014536951884591521 -4.340257951315091 -14.71105145106182 -3.849440536175465 0.0063462519203749375 0.026041456774431156 -0.02114600628764255 0.023919992174447045 -10.69751842018844 -0.04453816132416657 
